<svg xmlns="http://www.w3.org/2000/svg" viewBox="0 0 200 100">
  <path d="M10,50 Q30,30 50,40 Q70,50 90,40 Q110,30 130,40 Q150,50 170,40 Q190,30 190,50" fill="none" stroke="#483C32" stroke-width="2"/>
  
  <!-- Leaves -->
  <ellipse cx="30" cy="35" rx="8" ry="4" transform="rotate(-30 30 35)" fill="#8B0000" stroke="#483C32" stroke-width="1"/>
  <ellipse cx="42" cy="42" rx="8" ry="4" transform="rotate(-15 42 42)" fill="#8B0000" stroke="#483C32" stroke-width="1"/>
  <ellipse cx="55" cy="38" rx="8" ry="4" transform="rotate(15 55 38)" fill="#8B0000" stroke="#483C32" stroke-width="1"/>
  <ellipse cx="68" cy="44" rx="8" ry="4" transform="rotate(-10 68 44)" fill="#8B0000" stroke="#483C32" stroke-width="1"/>
  <ellipse cx="82" cy="38" rx="8" ry="4" transform="rotate(10 82 38)" fill="#8B0000" stroke="#483C32" stroke-width="1"/>
  <ellipse cx="96" cy="42" rx="8" ry="4" transform="rotate(-20 96 42)" fill="#8B0000" stroke="#483C32" stroke-width="1"/>
  <ellipse cx="110" cy="36" rx="8" ry="4" transform="rotate(5 110 36)" fill="#8B0000" stroke="#483C32" stroke-width="1"/>
  <ellipse cx="124" cy="42" rx="8" ry="4" transform="rotate(-15 124 42)" fill="#8B0000" stroke="#483C32" stroke-width="1"/>
  <ellipse cx="138" cy="38" rx="8" ry="4" transform="rotate(25 138 38)" fill="#8B0000" stroke="#483C32" stroke-width="1"/>
  <ellipse cx="152" cy="44" rx="8" ry="4" transform="rotate(-5 152 44)" fill="#8B0000" stroke="#483C32" stroke-width="1"/>
  <ellipse cx="166" cy="38" rx="8" ry="4" transform="rotate(10 166 38)" fill="#8B0000" stroke="#483C32" stroke-width="1"/>
  
  <!-- Olives -->
  <circle cx="34" cy="38" r="2" fill="#483C32"/>
  <circle cx="48" cy="40" r="2" fill="#483C32"/>
  <circle cx="62" cy="42" r="2" fill="#483C32"/>
  <circle cx="76" cy="38" r="2" fill="#483C32"/>
  <circle cx="90" cy="40" r="2" fill="#483C32"/>
  <circle cx="104" cy="38" r="2" fill="#483C32"/>
  <circle cx="118" cy="42" r="2" fill="#483C32"/>
  <circle cx="132" cy="39" r="2" fill="#483C32"/>
  <circle cx="146" cy="42" r="2" fill="#483C32"/>
  <circle cx="160" cy="38" r="2" fill="#483C32"/>
</svg>
