<svg xmlns="http://www.w3.org/2000/svg" viewBox="0 0 100 200">
  <!-- Capital -->
  <rect x="10" y="10" width="80" height="20" fill="#F5E6E8" stroke="#8B0000" stroke-width="2"/>
  <path d="M10,30 H90" stroke="#8B0000" stroke-width="2"/>
  <path d="M15,10 V30" stroke="#8B0000" stroke-width="2"/>
  <path d="M25,10 V30" stroke="#8B0000" stroke-width="2"/>
  <path d="M35,10 V30" stroke="#8B0000" stroke-width="2"/>
  <path d="M45,10 V30" stroke="#8B0000" stroke-width="2"/>
  <path d="M55,10 V30" stroke="#8B0000" stroke-width="2"/>
  <path d="M65,10 V30" stroke="#8B0000" stroke-width="2"/>
  <path d="M75,10 V30" stroke="#8B0000" stroke-width="2"/>
  <path d="M85,10 V30" stroke="#8B0000" stroke-width="2"/>
  
  <!-- Shaft -->
  <rect x="20" y="30" width="60" height="140" fill="#F5E6E8" stroke="#8B0000" stroke-width="2"/>
  <path d="M20,45 H80" stroke="#8B0000" stroke-width="1"/>
  <path d="M20,60 H80" stroke="#8B0000" stroke-width="1"/>
  <path d="M20,75 H80" stroke="#8B0000" stroke-width="1"/>
  <path d="M20,90 H80" stroke="#8B0000" stroke-width="1"/>
  <path d="M20,105 H80" stroke="#8B0000" stroke-width="1"/>
  <path d="M20,120 H80" stroke="#8B0000" stroke-width="1"/>
  <path d="M20,135 H80" stroke="#8B0000" stroke-width="1"/>
  <path d="M20,150 H80" stroke="#8B0000" stroke-width="1"/>
  
  <!-- Base -->
  <rect x="10" y="170" width="80" height="20" fill="#F5E6E8" stroke="#8B0000" stroke-width="2"/>
</svg>
